<?xml version="1.0" encoding="UTF-8"?>
<svg version="1.1" xmlns="http://www.w3.org/2000/svg" width="940" height="490">
<g transform="translate(-50,-270)">  
<path d="M0 0 C1.30066406 -0.00128906 2.60132813 -0.00257813 3.94140625 -0.00390625 C4.96258545 -0.00076416 4.96258545 -0.00076416 6.00439453 0.00244141 C8.08503515 0.0077901 10.16545989 0.0024957 12.24609375 -0.00390625 C14.19708984 -0.00197266 14.19708984 -0.00197266 16.1875 0 C17.39083984 0.00112793 18.59417969 0.00225586 19.83398438 0.00341797 C22.59375 0.1328125 22.59375 0.1328125 23.59375 1.1328125 C23.78125 4.5703125 23.78125 4.5703125 23.59375 8.1328125 C21.1968835 10.529679 20.52346686 10.41562383 17.2421875 10.546875 C16.39140625 10.58554687 15.540625 10.62421875 14.6640625 10.6640625 C13.77460937 10.695 12.88515625 10.7259375 11.96875 10.7578125 C10.62296875 10.81582031 10.62296875 10.81582031 9.25 10.875 C7.0314573 10.96940607 4.81292597 11.05497998 2.59375 11.1328125 C2.24183594 12.26074219 1.88992188 13.38867188 1.52734375 14.55078125 C1.02874404 16.1406558 0.53004019 17.7304977 0.03125 19.3203125 C-0.19626953 20.05056641 -0.42378906 20.78082031 -0.65820312 21.53320312 C-3.77284693 31.44343341 -7.10800007 41.28256774 -10.40625 51.1328125 C-9.50946533 51.11948883 -8.61268066 51.10616516 -7.6887207 51.09243774 C0.78516463 50.97194357 9.25876001 50.88072786 17.73330688 50.82193947 C22.08966785 50.79069863 26.44531775 50.7483607 30.80126953 50.68017578 C35.00939871 50.61472109 39.21684639 50.579052 43.42544556 50.56354904 C45.0266085 50.55250913 46.62773641 50.53095014 48.22860718 50.49843216 C63.35928337 50.20346339 63.35928337 50.20346339 69.13964844 55.45028687 C69.85942871 56.28313705 69.85942871 56.28313705 70.59375 57.1328125 C71.1113001 57.67352072 71.62885019 58.21422894 72.16208363 58.77132225 C74.12257513 62.00509351 74.00003275 64.93055331 73.95451355 68.59918213 C73.95707682 69.35397346 73.9596401 70.1087648 73.96228105 70.88642859 C73.96722469 73.41701568 73.95071679 75.94700689 73.93432617 78.47753906 C73.93348002 80.29091376 73.9339548 82.10428948 73.93565369 83.91766357 C73.93651554 88.84297926 73.91885893 93.76807642 73.89793181 98.69334126 C73.87919677 103.83963734 73.87741708 108.98593826 73.87385559 114.13226318 C73.8645258 123.87865257 73.83989935 133.62494118 73.80980712 143.37128615 C73.77629219 154.46667962 73.75978442 165.56207786 73.74472082 176.65750933 C73.71335064 199.48266818 73.6599687 222.30773045 73.59375 245.1328125 C79.86375 245.1328125 86.13375 245.1328125 92.59375 245.1328125 C94.07184147 255.88256868 90.7097314 261.11055837 84.48828125 269.37109375 C84.05362549 269.92837158 83.61896973 270.48564941 83.17114258 271.05981445 C81.38413009 273.27257328 81.38413009 273.27257328 79.82382584 276.70513725 C77.98699532 279.24277741 77.01961662 280.0268661 73.94570398 280.79158902 C70.39324997 281.05270008 66.89725908 281.08439929 63.33514404 281.0486145 C61.95540835 281.05954559 60.57569395 281.07351398 59.19601655 281.09025753 C55.40481618 281.12727534 51.61476079 281.12052381 47.82345176 281.10652137 C43.73457937 281.09892529 39.64599723 281.13146438 35.55723572 281.15869141 C27.54634935 281.20527741 19.53586631 281.21336386 11.52486387 281.206903 C5.01280781 281.20203124 -1.49912427 281.20932624 -8.0111618 281.22527695 C-9.40086689 281.22861823 -9.40086689 281.22861823 -10.81864683 281.23202702 C-12.70074259 281.23655427 -14.58283834 281.24108659 -16.46493408 281.24562393 C-34.1222621 281.28629346 -51.77935953 281.2808963 -69.4367089 281.26188491 C-85.58724761 281.24597611 -101.73699475 281.28928746 -117.88736406 281.36044182 C-134.4705698 281.43293957 -151.05339897 281.46461527 -167.63676524 281.45247829 C-176.94707777 281.44640881 -186.25669129 281.45663105 -195.56687164 281.50979996 C-203.49466844 281.55464979 -211.42135791 281.56103736 -219.34918365 281.51792003 C-223.39349516 281.49698437 -227.43576421 281.49362862 -231.47992897 281.53828049 C-235.18604362 281.57873428 -238.88842831 281.56799693 -242.59438333 281.5172113 C-244.56294887 281.50326007 -246.53167111 281.54321327 -248.49983525 281.58534157 C-253.80398028 281.46766561 -257.08662674 281.29351202 -261.16188765 277.70903945 C-263.44661202 274.94278855 -265.45360883 272.13950643 -267.40625 269.1328125 C-268.27188665 268.02026472 -269.14586933 266.91404836 -270.03515625 265.8203125 C-274.34138616 259.8350879 -276.28527043 255.65271204 -275.78515625 248.21484375 C-275.40625 246.1328125 -275.40625 246.1328125 -274.40625 245.1328125 C-273.06357587 245.04649376 -271.71650678 245.02574777 -270.37109375 245.03515625 C-269.56220703 245.03837891 -268.75332031 245.04160156 -267.91992188 245.04492188 C-267.06978516 245.05330078 -266.21964844 245.06167969 -265.34375 245.0703125 C-264.48974609 245.07482422 -263.63574219 245.07933594 -262.75585938 245.08398438 C-260.63929337 245.09580877 -258.52276315 245.11374481 -256.40625 245.1328125 C-256.40993717 244.19521025 -256.41362434 243.25760799 -256.41742325 242.29159355 C-256.50620491 219.48209171 -256.57194514 196.67261227 -256.61349869 173.86297417 C-256.63412758 162.83241512 -256.66225453 151.80197018 -256.70800781 140.77148438 C-256.74786544 131.15778023 -256.77368043 121.54415873 -256.78260398 111.93037426 C-256.78782052 106.83949436 -256.80008826 101.74885088 -256.82917023 96.65804672 C-256.85632226 91.86625067 -256.86469538 87.07478842 -256.85868073 82.28292274 C-256.85978105 80.52451196 -256.86773622 78.76609 -256.8830719 77.00774574 C-256.90299697 74.60533029 -256.89818068 72.20417232 -256.88726807 69.80172729 C-256.89891943 69.10716081 -256.9105708 68.41259432 -256.92257524 67.69698036 C-256.861758 62.73788739 -255.47308781 59.97011511 -252.40625 56.1328125 C-247.48291104 51.6897993 -244.17853993 51.00754807 -237.63989258 51.01928711 C-236.95670456 51.01914108 -236.27351654 51.01899506 -235.56962585 51.0188446 C-233.31331193 51.01954081 -231.05708074 51.02731954 -228.80078125 51.03515625 C-227.23565211 51.03702147 -225.67052239 51.03844488 -224.10539246 51.03944397 C-219.98721707 51.04326098 -215.86907698 51.05308432 -211.75091553 51.06414795 C-207.54814125 51.07437959 -203.34536127 51.07894535 -199.14257812 51.08398438 C-190.89711922 51.09470731 -182.651689 51.11177396 -174.40625 51.1328125 C-174.85097656 50.03582031 -175.29570312 48.93882812 -175.75390625 47.80859375 C-176.3261901 46.35442988 -176.89776774 44.89998794 -177.46875 43.4453125 C-177.76330078 42.72408203 -178.05785156 42.00285156 -178.36132812 41.25976562 C-179.93151286 37.21423084 -180.96707779 34.40670222 -179.40625 30.1328125 C-178.40625 29.1328125 -178.40625 29.1328125 -175.70633602 29.00976467 C-174.49049108 29.01068646 -173.27464613 29.01160826 -172.0219574 29.01255798 C-171.34731683 29.01170356 -170.67267627 29.01084913 -169.97759205 29.00996882 C-167.70044838 29.00831211 -165.4233772 29.01383846 -163.14624023 29.01928711 C-161.52049766 29.01956897 -159.89475495 29.01941128 -158.26901245 29.0188446 C-153.84151587 29.01855657 -149.41404613 29.02445423 -144.98655581 29.03141856 C-140.36474158 29.03765114 -135.7429268 29.03825582 -131.12110901 29.03944397 C-122.36276763 29.04255757 -113.60443867 29.05077135 -104.84610277 29.06079346 C-94.87770987 29.0719537 -84.90931639 29.07746482 -74.9409188 29.08248889 C-54.42935559 29.09295394 -33.91780358 29.11055393 -13.40625 29.1328125 C-13.27388443 28.32035568 -13.14151886 27.50789886 -13.00514221 26.67082214 C-12.82885788 25.59891129 -12.65257355 24.52700043 -12.47094727 23.42260742 C-12.21052391 21.8326722 -12.21052391 21.8326722 -11.94483948 20.21061707 C-11.2498176 16.23886937 -10.34907249 12.34810438 -9.34375 8.4453125 C-9.17037109 7.74470703 -8.99699219 7.04410156 -8.81835938 6.32226562 C-7.17991474 -0.14990457 -6.6186907 0.00620391 0 0 Z M-244.57471466 63.20809174 C-246.88921833 66.90404933 -246.89945125 69.18326753 -246.88726807 73.52961731 C-246.89069214 74.26307877 -246.89411621 74.99654022 -246.89764404 75.75222778 C-246.9042541 78.21257658 -246.88219174 80.67183118 -246.86035156 83.13208008 C-246.85912602 84.92489175 -246.85966054 86.71770536 -246.86181259 88.51051617 C-246.86271551 93.31090388 -246.83953541 98.11089263 -246.81137085 102.91118622 C-246.78858805 107.41586055 -246.78751824 111.92043793 -246.78466797 116.4251709 C-246.7636801 129.59860426 -246.70783545 142.77196342 -246.65625 155.9453125 C-246.57375 185.3771875 -246.49125 214.8090625 -246.40625 245.1328125 C-144.10625 245.1328125 -41.80625 245.1328125 63.59375 245.1328125 C63.67625 215.5153125 63.75875 185.8978125 63.84375 155.3828125 C63.88016602 146.02196289 63.91658203 136.66111328 63.95410156 127.01660156 C63.96747713 118.64474782 63.96747713 118.64474782 63.9755249 110.27288818 C63.97926007 106.53630118 63.99428353 102.7999402 64.01605225 99.06341553 C64.04343029 94.30119588 64.05172563 89.53930626 64.0460391 84.77701521 C64.04722868 83.02680222 64.05519538 81.27657802 64.07061052 79.52643251 C64.09043709 77.16630972 64.08573801 74.8074776 64.07476807 72.44732666 C64.08641872 71.75880489 64.09806938 71.07028313 64.11007309 70.36089706 C64.06870991 67.06174185 63.77393035 65.37220214 61.76696014 62.70571899 C58.62833428 60.43407259 56.28487587 60.65218405 52.43847656 60.67871094 C51.72588181 60.67812683 51.01328705 60.67754272 50.27909851 60.67694092 C47.9303569 60.67972141 45.5828941 60.71080927 43.234375 60.7421875 C41.60342095 60.74965007 39.97245793 60.75534293 38.3414917 60.75933838 C34.05376323 60.77459358 29.76657881 60.81387396 25.47906494 60.8581543 C21.10200357 60.89910973 16.72485409 60.91734995 12.34765625 60.9375 C3.76277148 60.98036873 -4.82167154 61.04861815 -13.40625 61.1328125 C-15.39538839 66.35008804 -17.25705888 71.57918889 -18.96484375 76.89453125 C-19.19526871 77.60704544 -19.42569366 78.31955963 -19.6631012 79.05366516 C-20.14713734 80.55168514 -20.63027606 82.04999537 -21.11254883 83.54858398 C-21.83658545 85.79805334 -22.56355322 88.04655836 -23.29101562 90.29492188 C-25.74339995 97.88744138 -28.14109005 105.49291902 -30.47045898 113.12426758 C-31.39881709 116.10891589 -32.37189102 119.07480819 -33.36328125 122.0390625 C-33.82444336 123.43125 -33.82444336 123.43125 -34.29492188 124.8515625 C-34.9221027 126.73973478 -35.55782238 128.62508794 -36.20117188 130.5078125 C-36.65266602 131.88453125 -36.65266602 131.88453125 -37.11328125 133.2890625 C-37.3863208 134.10181641 -37.65936035 134.91457031 -37.94067383 135.75195312 C-38.49224047 138.57254983 -38.25603346 140.3958476 -37.40625 143.1328125 C-35.01039714 145.77868484 -35.01039714 145.77868484 -32.40625 148.1328125 C-29.95235242 151.81365886 -30.0389785 154.68304554 -30.03125 158.9453125 C-30.00675781 159.64462891 -29.98226562 160.34394531 -29.95703125 161.06445312 C-29.92819647 166.20184928 -31.08253531 169.03741268 -34.40625 173.1328125 C-40.06118654 178.23604791 -44.6813155 178.54266715 -52.1015625 178.4765625 C-58.28995808 177.83285232 -61.5905983 174.90307291 -65.90625 170.6953125 C-68.74026997 163.96451508 -68.15625406 156.13282872 -66.40625 149.1328125 C-81.25625 149.1328125 -96.10625 149.1328125 -111.40625 149.1328125 C-110.41625 152.5978125 -110.41625 152.5978125 -109.40625 156.1328125 C-108.73068411 162.21290547 -110.12240329 167.03521324 -113.40625 172.1328125 C-119.39362374 177.87524823 -125.20527307 178.48492075 -133.16796875 178.4140625 C-138.89166993 177.91694973 -141.86609836 175.79455506 -145.78125 171.5703125 C-149.78178144 165.56951534 -149.05250041 158.05797314 -148.40625 151.1328125 C-146.37385277 145.74520778 -142.32526672 142.91481609 -137.40625 140.1328125 C-134.52370025 139.5868415 -131.71312003 139.61835403 -128.78637695 139.66625977 C-127.94175903 139.66395355 -127.09714111 139.66164734 -126.22692871 139.65927124 C-124.40178427 139.65665002 -122.57660906 139.66304446 -120.75152016 139.67752266 C-117.86406044 139.69945015 -114.97764574 139.69568033 -112.09013367 139.68504333 C-104.92413711 139.66340059 -97.75837562 139.68080133 -90.59240723 139.70654297 C-84.52707245 139.7279073 -78.46240828 139.72995418 -72.39708519 139.70362663 C-69.54988318 139.69926524 -66.70383671 139.72393928 -63.85676575 139.74916077 C-62.11715167 139.74389219 -60.37754117 139.7371712 -58.63793945 139.72875977 C-57.44798622 139.7511245 -57.44798622 139.7511245 -56.23399353 139.77394104 C-53.77942099 139.79835934 -53.77942099 139.79835934 -50.40625 139.1328125 C-47.45697721 135.58397882 -46.23954992 131.27936394 -44.71875 126.9453125 C-44.28175781 125.71425781 -43.84476563 124.48320312 -43.39453125 123.21484375 C-42.30446835 120.35483285 -42.30446835 120.35483285 -42.40625 118.1328125 C-78.70625 117.8028125 -115.00625 117.4728125 -152.40625 117.1328125 C-154.69417085 112.55697081 -156.09498175 109.13000346 -157.40625 104.3203125 C-159.97841488 95.10688366 -163.05140227 86.06174618 -166.09375 76.99609375 C-166.61019317 75.45273332 -167.12647049 73.90931739 -167.64257812 72.36584473 C-168.89522545 68.62085836 -170.1501104 64.87662886 -171.40625 61.1328125 C-180.59431103 61.01696614 -189.78212073 60.92812194 -198.97075272 60.87375164 C-203.23743737 60.84765651 -207.50362243 60.81226102 -211.77001953 60.75561523 C-215.8873358 60.70129089 -220.00417155 60.67139133 -224.12181854 60.65842628 C-225.69276241 60.64918701 -227.26367994 60.63114436 -228.83441925 60.60416222 C-231.0350477 60.56786304 -233.23369069 60.56286703 -235.43457031 60.56518555 C-236.68699524 60.55408249 -237.93942017 60.54297943 -239.22979736 60.53153992 C-242.50850389 60.85331272 -242.50850389 60.85331272 -244.57471466 63.20809174 Z " fill="#FCFCFC" transform="translate(618.40625,279.8671875)"/>
<path d="M0 0 C3.43734063 -0.08703823 6.87439837 -0.14040272 10.3125 -0.1875 C11.28896484 -0.21263672 12.26542969 -0.23777344 13.27148438 -0.26367188 C14.20927734 -0.27333984 15.14707031 -0.28300781 16.11328125 -0.29296875 C16.97735596 -0.3086792 17.84143066 -0.32438965 18.73168945 -0.34057617 C21.56555611 0.08491559 22.16642951 0.84383232 24 3 C25.05706787 4.98547363 25.05706787 4.98547363 26.03027344 7.28320312 C26.40259094 8.15224777 26.77490845 9.02129242 27.1585083 9.91667175 C27.55479431 10.86198257 27.95108032 11.8072934 28.359375 12.78125 C28.99175079 14.26526054 28.99175079 14.26526054 29.63690186 15.7792511 C31.01468633 19.01667894 32.3823385 22.25828433 33.75 25.5 C34.69654374 27.72906644 35.64381357 29.9578247 36.59179688 32.1862793 C38.49733461 36.66759816 40.39941764 41.15035819 42.29882812 45.63427734 C44.70056529 51.30011254 47.11811342 56.95898361 49.546875 62.61328125 C50.06093903 63.81010025 50.06093903 63.81010025 50.58538818 65.03109741 C51.24385779 66.56358919 51.90244309 68.09603128 52.56115723 69.62841797 C54.55356381 74.26346393 56.54529178 78.89868446 58.51953125 83.54150391 C59.50014195 85.83229071 60.49737405 88.11603924 61.51171875 90.39208984 C61.97191406 91.44219238 62.43210937 92.49229492 62.90625 93.57421875 C63.31166016 94.48131592 63.71707031 95.38841309 64.13476562 96.32299805 C65.12709731 99.39323419 65.29458358 101.79246827 65 105 C62.60464298 107.39535702 62.09462148 107.25189588 58.83143616 107.26069641 C57.95795029 107.26778122 57.08446442 107.27486603 56.18450928 107.28216553 C55.22393616 107.27968811 54.26336304 107.27721069 53.27368164 107.2746582 C52.26383713 107.27976913 51.25399261 107.28488007 50.21354675 107.29014587 C46.86235695 107.3040905 43.51137168 107.30308144 40.16015625 107.30078125 C37.8384951 107.30466551 35.51683467 107.30899962 33.19517517 107.31376648 C28.32353413 107.32123919 23.45196554 107.32092981 18.58032227 107.31567383 C12.32760594 107.30987797 6.0751857 107.32680815 -0.17748165 107.3500185 C-4.9737777 107.36472781 -9.77000199 107.36563136 -14.5663166 107.36250877 C-16.87207183 107.3630234 -19.17783092 107.3682875 -21.48356438 107.37832069 C-24.70400277 107.39061334 -27.92385852 107.38393638 -31.14428711 107.37231445 C-32.102836 107.37995819 -33.06138489 107.38760193 -34.04898071 107.39547729 C-34.92528641 107.38846298 -35.8015921 107.38144867 -36.70445251 107.3742218 C-37.46602126 107.37438954 -38.22759001 107.37455729 -39.0122366 107.37473011 C-41 107 -41 107 -42.83097172 105.85161114 C-44 104 -44 104 -43 98 C-41.02 94.04 -39.04 90.08 -37 86 C-13.24 86 10.52 86 35 86 C23.65201012 58.93279438 23.65201012 58.93279438 12 32 C11.34 32 10.68 32 10 32 C9.60208252 32.91700684 9.20416504 33.83401367 8.79418945 34.77880859 C7.29663389 38.22793377 5.79543554 41.67546386 4.29321289 45.12255859 C3.64738372 46.60585955 3.00250233 48.08957358 2.35864258 49.57373047 C-7.65805539 72.65805539 -7.65805539 72.65805539 -10 75 C-11.40348735 75.09860131 -12.81180477 75.13078937 -14.21875 75.1328125 C-15.49298828 75.13474609 -15.49298828 75.13474609 -16.79296875 75.13671875 C-17.68628906 75.13285156 -18.57960938 75.12898437 -19.5 75.125 C-20.39332031 75.12886719 -21.28664063 75.13273438 -22.20703125 75.13671875 C-23.05652344 75.13542969 -23.90601563 75.13414062 -24.78125 75.1328125 C-25.56564453 75.13168457 -26.35003906 75.13055664 -27.15820312 75.12939453 C-29 75 -29 75 -30 74 C-29.61423958 67.88818753 -28.08143187 63.1100134 -25.5703125 57.56640625 C-25.22374603 56.77875885 -24.87717957 55.99111145 -24.52011108 55.17959595 C-23.39824047 52.63607919 -22.26183432 50.09935905 -21.125 47.5625 C-20.34992764 45.81269131 -19.57584423 44.06244424 -18.80273438 42.31176758 C-17.26350778 38.83010579 -15.71880889 35.35096289 -14.16894531 31.87402344 C-12.25165626 27.57080274 -10.3508972 23.26059697 -8.4609375 18.9453125 C-6.61253465 14.72646343 -4.76372315 10.50783393 -2.90625 6.29296875 C-2.55884766 5.5043042 -2.21144531 4.71563965 -1.85351562 3.90307617 C-1.26412553 2.58891833 -0.64411048 1.28822095 0 0 Z " fill="#FBFBFB" transform="translate(651,607)"/>
<path d="M0 0 C1.16874161 -0.01268417 2.33748322 -0.02536835 3.54164124 -0.03843689 C5.43999977 -0.03403343 5.43999977 -0.03403343 7.37670898 -0.02954102 C9.33241066 -0.03740379 9.33241066 -0.03740379 11.32762146 -0.04542542 C14.09253585 -0.05436611 16.85716168 -0.05192762 19.62207031 -0.04199219 C23.14020935 -0.03057392 26.65733394 -0.05059658 30.1753397 -0.07990932 C33.55501284 -0.10285654 36.93446017 -0.09579403 40.31420898 -0.09204102 C42.1913131 -0.10889198 42.1913131 -0.10889198 44.1063385 -0.12608337 C55.82761458 -0.03374537 63.55221679 2.86731337 72.04077148 10.95483398 C79.98391063 19.52686195 81.7880404 26.66887675 81.58374023 38.09155273 C81.17541373 47.42241983 77.0074644 54.09837442 70.31030273 60.40405273 C64.38572853 65.40405273 64.38572853 65.40405273 60.31030273 65.40405273 C61.91134815 68.05181644 63.51588703 70.69735302 65.12280273 73.34155273 C65.61039063 74.14681396 66.09797852 74.9520752 66.6003418 75.78173828 C69.16035988 79.98332907 71.76960034 84.13224942 74.52514648 88.20874023 C75.03392334 88.96678955 75.5427002 89.72483887 76.06689453 90.50585938 C77.04671922 91.95629464 78.03873855 93.39858161 79.04394531 94.83154297 C82.329173 99.7143446 82.329173 99.7143446 82.23217773 103.25952148 C81.31030273 105.40405273 81.31030273 105.40405273 79.31030273 107.40405273 C76.37520419 107.89928649 73.40750582 107.82062173 70.43530273 107.84155273 C69.61932617 107.87442383 68.80334961 107.90729492 67.96264648 107.94116211 C61.99053211 107.99474552 61.99053211 107.99474552 59.17358398 105.54858398 C58.55870117 104.51088867 57.94381836 103.47319336 57.31030273 102.40405273 C56.22014473 100.74109099 55.12740923 99.07981776 54.03295898 97.41967773 C52.80985886 95.4997411 51.58989551 93.57780318 50.37280273 91.65405273 C49.76500977 90.70272461 49.1572168 89.75139648 48.53100586 88.77124023 C44.90522113 83.06072707 41.60819239 77.34025411 38.31030273 71.40405273 C30.39030273 71.40405273 22.47030273 71.40405273 14.31030273 71.40405273 C14.26131836 73.83522461 14.21233398 76.26639648 14.16186523 78.77124023 C14.10788346 81.121076 14.05056507 83.47080824 13.99291992 85.82055664 C13.95459421 87.45589514 13.91974767 89.09131897 13.88842773 90.72680664 C13.84285432 93.07526184 13.78484907 95.42312768 13.72436523 97.77124023 C13.70703842 98.87131912 13.70703842 98.87131912 13.68936157 99.99362183 C13.53804615 105.17630932 13.53804615 105.17630932 11.31030273 107.40405273 C8.61867848 107.62957511 6.06360529 107.72838564 3.37280273 107.71655273 C2.64383789 107.73266602 1.91487305 107.7487793 1.16381836 107.76538086 C-4.172672 107.77027223 -4.172672 107.77027223 -6.39909363 106.19325256 C-8.11147471 103.81933089 -8.06406515 102.32791847 -8.06201172 99.41357422 C-8.06824051 98.39919785 -8.0744693 97.38482147 -8.08088684 96.33970642 C-8.07167709 95.24590164 -8.06246735 94.15209686 -8.05297852 93.02514648 C-8.05347702 91.90213638 -8.05397552 90.77912628 -8.05448914 89.62208557 C-8.0521477 87.24738801 -8.04241518 84.87268801 -8.02587891 82.49804688 C-8.00226855 78.85255888 -8.00531986 75.20780095 -8.01196289 71.56225586 C-8.00638696 69.25821502 -7.99927762 66.95417727 -7.99047852 64.65014648 C-7.99138992 63.55431747 -7.99230133 62.45848846 -7.99324036 61.32945251 C-7.98370834 60.3182283 -7.97417633 59.30700409 -7.96435547 58.26513672 C-7.95974808 57.37261703 -7.95514069 56.48009735 -7.95039368 55.56053162 C-7.68969727 53.40405273 -7.68969727 53.40405273 -5.68969727 51.40405273 C-3.50439453 51.15922546 -3.50439453 51.15922546 -0.75610352 51.16455078 C0.27256836 51.16081955 1.30124023 51.15708832 2.36108398 51.15324402 C4.03750977 51.15944511 4.03750977 51.15944511 5.74780273 51.16577148 C8.11108965 51.15034065 10.474371 51.13403622 12.83764648 51.11694336 C16.56579875 51.10054243 20.29354344 51.09152076 24.02172852 51.09863281 C27.61838733 51.1012665 31.21380962 51.07301714 34.81030273 51.04077148 C35.91172607 51.05097824 37.01314941 51.061185 38.14794922 51.07170105 C45.55491124 50.97901493 51.09299668 49.52820879 57.31030273 45.40405273 C60.13373405 42.33149512 60.28087462 40.70814328 60.68530273 36.52905273 C60.47618652 32.26629921 59.57585763 29.08557944 57.31030273 25.40405273 C50.48856003 20.9563945 44.60078373 20.84335863 36.60327148 20.90014648 C35.40092361 20.89072525 34.19857574 20.88130402 32.95979309 20.87159729 C29.13895402 20.84302786 25.31873987 20.8398677 21.49780273 20.84155273 C17.65910487 20.83795013 13.8208571 20.82850693 9.98225403 20.80079651 C7.59843182 20.78394741 5.21446049 20.7811794 2.83061218 20.79380798 C1.75551895 20.78692459 0.68042572 20.7800412 -0.42724609 20.77294922 C-1.84666252 20.77439186 -1.84666252 20.77439186 -3.29475403 20.77586365 C-5.68969727 20.40405273 -5.68969727 20.40405273 -7.49369812 19.0841217 C-9.4465618 16.34085413 -9.08532065 13.70379363 -9.06469727 10.40405273 C-9.07243164 9.16655273 -9.08016602 7.92905273 -9.08813477 6.65405273 C-8.68969727 3.40405273 -8.68969727 3.40405273 -7.520401 1.72618103 C-4.96064148 -0.12246899 -3.1422781 0.01649809 0 0 Z " fill="#FDFDFC" transform="translate(752.689697265625,606.595947265625)"/>
<path d="M0 0 C0.96215424 -0.0127597 1.92430847 -0.02551941 2.9156189 -0.03866577 C3.96134064 -0.04089142 5.00706238 -0.04311707 6.08447266 -0.04541016 C7.70224106 -0.05539536 7.70224106 -0.05539536 9.35269165 -0.06558228 C11.64429009 -0.07572895 13.93591819 -0.08039868 16.22753906 -0.08007812 C19.69989497 -0.08441195 23.17093895 -0.12060139 26.64306641 -0.15869141 C28.87353084 -0.16456733 31.10400128 -0.16853153 33.33447266 -0.17041016 C34.8726918 -0.19196671 34.8726918 -0.19196671 36.44198608 -0.21395874 C50.04409182 -0.12972877 62.58821433 5.36113301 72.65478516 14.47802734 C83.65027173 26.07326773 89.9472929 39.84612724 89.61572266 55.79833984 C88.50981293 71.74484463 82.47680218 84.87739015 70.67431641 95.62255859 C55.97299007 108.04862737 37.96503846 108.78187427 19.62841797 108.62670898 C16.58746592 108.60274308 13.5473725 108.60621594 10.50634766 108.61279297 C8.57144658 108.60722671 6.63654916 108.60012351 4.70166016 108.59130859 C3.33935272 108.5926757 3.33935272 108.5926757 1.94952393 108.59407043 C0.69616241 108.57977242 0.69616241 108.57977242 -0.58251953 108.56518555 C-1.68500031 108.55827446 -1.68500031 108.55827446 -2.80975342 108.55122375 C-4.62646484 108.29052734 -4.62646484 108.29052734 -6.62646484 106.29052734 C-6.82503456 103.41710673 -6.9047543 100.66190746 -6.87646484 97.79052734 C-6.88419922 97.00548828 -6.89193359 96.22044922 -6.89990234 95.41162109 C-6.87977272 89.54383522 -6.87977272 89.54383522 -4.62646484 87.29052734 C-2.69586182 87.05915833 -2.69586182 87.05915833 -0.30712891 87.08276367 C1.03632599 87.0868499 1.03632599 87.0868499 2.40692139 87.09101868 C3.86766083 87.10663094 3.86766083 87.10663094 5.35791016 87.12255859 C7.42952931 87.11687257 9.50114473 87.10965945 11.57275391 87.10107422 C14.8312001 87.09692985 18.08838933 87.10266795 21.34667969 87.13598633 C35.41332388 87.25775213 47.39101403 87.19548169 58.46362305 77.45117188 C65.88072226 69.72851696 67.84554568 60.4096463 67.79150391 50.04443359 C66.90925209 42.12065792 62.67118403 35.13920903 57.37353516 29.29052734 C54.74328611 27.47492457 54.74328611 27.47492457 51.87353516 26.04052734 C50.93509766 25.54037109 49.99666016 25.04021484 49.02978516 24.52490234 C45.15550567 22.72450188 41.89473803 22.1663336 37.63671875 22.11694336 C36.70250092 22.10345352 35.76828308 22.08996368 34.80575562 22.07606506 C33.80460724 22.06562668 32.80345886 22.05518829 31.77197266 22.04443359 C29.65217652 22.01151686 27.53238496 21.97830488 25.41259766 21.94482422 C22.07017948 21.89726548 18.72778263 21.85278481 15.38525391 21.8137207 C12.15980472 21.77416063 8.9347221 21.72260224 5.70947266 21.66943359 C4.70427582 21.66101944 3.69907898 21.65260529 2.66342163 21.64393616 C1.73550812 21.62729416 0.8075946 21.61065216 -0.1484375 21.59350586 C-0.96688141 21.58319839 -1.78532532 21.57289093 -2.62857056 21.56227112 C-4.62646484 21.29052734 -4.62646484 21.29052734 -6.62646484 19.29052734 C-6.82503456 16.41710673 -6.9047543 13.66190746 -6.87646484 10.79052734 C-6.88419922 10.00548828 -6.89193359 9.22044922 -6.89990234 8.41162109 C-6.87874854 2.24528671 -6.34561709 0.05707399 0 0 Z " fill="#FBFBFB" transform="translate(110.62646484375,605.70947265625)"/>
<path d="M0 0 C0.85529297 -0.00773438 1.71058594 -0.01546875 2.59179688 -0.0234375 C18.47352856 0.02501935 31.4958709 6.852133 42.75 17.625 C47.13951066 22.1360196 51.61570856 26.75013372 52.4375 33.1875 C52.0625 35.25 52.0625 35.25 51.0625 36.25 C47.53303711 36.66976829 43.98819929 36.71500315 40.4375 36.8125 C39.45136719 36.87501953 38.46523438 36.93753906 37.44921875 37.00195312 C30.17263321 37.16225174 30.17263321 37.16225174 26.97241211 34.5324707 C25.78645599 33.12379529 24.64264536 31.6784004 23.546875 30.19848633 C21.65707129 27.71780814 19.70276532 26.57577831 16.875 25.3125 C16.05644531 24.93222656 15.23789062 24.55195312 14.39453125 24.16015625 C6.45525614 21.06157819 -3.21671341 20.84449308 -11.375 23.2734375 C-21.73720139 28.05802539 -28.12226653 35.50733262 -32.0859375 46.14453125 C-34.50509973 54.96670544 -33.15818482 62.06623851 -29.6171875 70.36328125 C-25.41461011 77.5858503 -20.41160413 81.6179189 -13.125 85.5625 C-11.59512248 86.40819289 -10.06764014 87.25823806 -8.54296875 88.11328125 C-7.53979614 88.65915894 -7.53979614 88.65915894 -6.51635742 89.21606445 C-4.9375 90.25 -4.9375 90.25 -3.9375 92.25 C-3.78901358 94.58009456 -3.71620465 96.9153555 -3.6875 99.25 C-3.66171875 100.508125 -3.6359375 101.76625 -3.609375 103.0625 C-3.71765625 104.114375 -3.8259375 105.16625 -3.9375 106.25 C-7.74595881 108.78897254 -10.54010256 108.92652268 -14.9375 108.25 C-23.07883125 105.77220353 -29.63392483 101.90554408 -35.9375 96.25 C-36.63746094 95.63125 -37.33742188 95.0125 -38.05859375 94.375 C-48.55470333 84.53365718 -53.80121245 71.63738337 -55.3515625 57.46484375 C-55.74436178 41.34221889 -50.33940629 28.17995053 -39.28515625 16.53515625 C-28.20812865 5.75302456 -15.54360918 -0.13992746 0 0 Z " fill="#FCFCFC" transform="translate(331.9375,605.75)"/>
<path d="M0 0 C0.72874329 -0.00365067 1.45748657 -0.00730133 2.20831299 -0.01106262 C4.61754647 -0.01916999 7.02610783 -0.00555831 9.43530273 0.0090332 C11.1077423 0.00955173 12.78018249 0.00903431 14.45262146 0.00752258 C17.95727641 0.00761231 21.46170135 0.0180438 24.96630859 0.03613281 C29.46470814 0.0588376 33.96277202 0.05936102 38.46121311 0.05261517 C41.91410826 0.0492785 45.36692648 0.05589925 48.81980705 0.0657444 C50.47884659 0.0696006 52.13789468 0.07074288 53.79693794 0.06915855 C56.11218794 0.06878887 58.42700271 0.08137991 60.7421875 0.09765625 C62.06106461 0.10226364 63.37994171 0.10687103 64.73878479 0.11161804 C67.80639648 0.37231445 67.80639648 0.37231445 69.80639648 2.37231445 C70.0049175 5.08154246 70.08479126 7.66534625 70.05639648 10.37231445 C70.06799805 11.47833008 70.06799805 11.47833008 70.07983398 12.60668945 C70.05971608 18.11899486 70.05971608 18.11899486 67.80639648 20.37231445 C65.10083008 20.69116211 65.10083008 20.69116211 61.70483398 20.78637695 C60.49311523 20.82504883 59.28139648 20.8637207 58.03295898 20.90356445 C56.76194336 20.93450195 55.49092773 20.96543945 54.18139648 20.99731445 C52.90264648 21.03598633 51.62389648 21.0746582 50.30639648 21.11450195 C47.13987631 21.20902494 43.97336609 21.29457802 40.80639648 21.37231445 C40.80053024 22.40548294 40.794664 23.43865143 40.78862 24.50312805 C40.73145955 34.22971891 40.65873318 43.95608476 40.57068157 53.68244648 C40.5259135 58.68313811 40.48667169 63.68374705 40.45996094 68.68457031 C40.43399203 73.50874323 40.39363548 78.33259903 40.34321022 83.15657616 C40.32649799 84.99896494 40.31501092 86.84140863 40.30878258 88.68386269 C40.29918865 91.26044757 40.27118696 93.83621315 40.23876953 96.41259766 C40.24020462 97.17792313 40.24163971 97.9432486 40.24311829 98.73176575 C40.15163741 103.85733992 40.15163741 103.85733992 38.48249817 106.34709167 C35.69415434 108.05264071 33.01821032 107.72830777 29.80639648 107.68481445 C28.56889648 107.68094727 27.33139648 107.67708008 26.05639648 107.6730957 C22.80639648 107.37231445 22.80639648 107.37231445 19.80639648 105.37231445 C19.49554498 102.68821035 19.37936145 100.2301805 19.38989258 97.54199219 C19.38130722 96.73376007 19.37272186 95.92552795 19.36387634 95.09280396 C19.33872457 92.41375124 19.33442969 89.73506838 19.32983398 87.0559082 C19.31553333 85.20027015 19.29977803 83.34464279 19.28262329 81.48902893 C19.24068717 76.59858319 19.21574415 71.70820364 19.19512939 66.81762695 C19.15936812 58.98511384 19.09848876 51.15276397 19.03664017 43.32042122 C19.01747853 40.57660593 19.00579904 37.83283425 18.99520874 35.088974 C18.98500164 33.41706242 18.97464414 31.74515175 18.96411133 30.07324219 C18.963069 29.30386826 18.96202667 28.53449432 18.96095276 27.74180603 C19.24894446 24.26570675 19.24894446 24.26570675 17.80639648 21.37231445 C15.98877789 21.25088926 14.16686054 21.19264688 12.34545898 21.16137695 C11.23428711 21.13301758 10.12311523 21.1046582 8.97827148 21.07543945 C6.62165649 21.02353163 4.26486171 20.97920859 1.90795898 20.94262695 C0.79420898 20.91168945 -0.31954102 20.88075195 -1.46704102 20.84887695 C-2.4923291 20.82905762 -3.51761719 20.80923828 -4.57397461 20.78881836 C-7.19360352 20.37231445 -7.19360352 20.37231445 -9.02661133 19.0456543 C-10.94136563 16.30010493 -10.58910922 13.65322785 -10.56860352 10.37231445 C-10.57633789 9.13481445 -10.58407227 7.89731445 -10.59204102 6.62231445 C-10.19360352 3.37231445 -10.19360352 3.37231445 -9.11830139 1.69245911 C-6.14740151 -0.34527245 -3.56850862 -0.00170202 0 0 Z " fill="#FDFDFD" transform="translate(868.193603515625,606.627685546875)"/>
<path d="M0 0 C1.72265625 1.09375 1.72265625 1.09375 3 3 C3.43359375 6.21484375 3.43359375 6.21484375 3.4375 9.9375 C3.45683594 11.16339844 3.47617187 12.38929688 3.49609375 13.65234375 C3 17 3 17 1.296875 19.328125 C-1.19072781 21.13882909 -3.24294344 21.94995313 -6.1875 22.8125 C-15.73130003 26.09556721 -22.39657686 32.01162125 -27 41 C-30.32021812 49.21232695 -29.81286355 58.32960526 -27.04296875 66.61328125 C-22.21926096 77.65180358 -13.71897272 82.40138116 -3.046875 86.66796875 C0 88 0 88 2 90 C2.22555081 92.52792663 2.32438591 94.91055576 2.3125 97.4375 C2.32861328 98.11876953 2.34472656 98.80003906 2.36132812 99.50195312 C2.36418109 102.41482852 2.34619627 104.48638942 0.69140625 106.94140625 C-2.43743205 108.89963992 -5.51084193 108.56787549 -9 108 C-23.33655979 104.00426204 -35.64577482 95.19853142 -43.5625 82.4921875 C-44.85684007 80.03448224 -45.96096402 77.57517936 -47 75 C-47.31839844 74.2678125 -47.63679688 73.535625 -47.96484375 72.78125 C-52.65761896 60.15184575 -51.23758863 42.86298507 -45.81396484 30.76513672 C-39.19879867 16.97094899 -28.5479004 7.19416016 -14.3125 1.5 C-9.67898592 -0.00874192 -4.83796873 -1.11878027 0 0 Z " fill="#FBFBFB" transform="translate(525,606)"/>
<path d="M0 0 C1.13457642 -0.00953201 2.26915283 -0.01906403 3.43811035 -0.02888489 C4.66831909 -0.02797348 5.89852783 -0.02706207 7.16601562 -0.02612305 C9.0524176 -0.03255074 9.0524176 -0.03255074 10.97692871 -0.03910828 C13.64019681 -0.04486036 16.30307842 -0.04627663 18.96630859 -0.04101562 C22.38308126 -0.03521638 25.79931266 -0.05216038 29.21599579 -0.0753603 C32.47016539 -0.09361211 35.72430401 -0.08991299 38.97851562 -0.08862305 C40.82382874 -0.10243767 40.82382874 -0.10243767 42.7064209 -0.11653137 C44.40828552 -0.10718819 44.40828552 -0.10718819 46.14453125 -0.09765625 C47.14665649 -0.09828568 48.14878174 -0.0989151 49.18127441 -0.0995636 C49.97030151 0.0239296 50.75932861 0.14742279 51.57226562 0.2746582 C54.27507528 4.32887268 54.09141527 7.58949293 53.57226562 12.2746582 C50.43766079 27.77824428 44.87862349 40.14753772 32.07226562 49.9621582 C27.73403086 52.84086282 23.22120022 54.84449729 18.38476562 56.7121582 C17.71960938 56.97150146 17.05445313 57.23084473 16.36914062 57.49804688 C11.98628618 59.08225706 8.2141192 59.86976764 3.57226562 59.2746582 C0.91853443 57.06050211 0.61716361 55.59501138 0.13867188 52.1809082 C0.13738281 51.0568457 0.13609375 49.9327832 0.13476562 48.7746582 C0.11542969 47.6505957 0.09609375 46.5265332 0.07617188 45.3684082 C0.68224313 41.58881426 1.53321524 40.54374783 4.57226562 38.2746582 C7.27148438 37.03637695 7.27148438 37.03637695 10.25976562 35.9621582 C18.99505088 32.48510937 24.45184082 28.11963336 29.57226562 20.2746582 C27.99759521 20.29036865 27.99759521 20.29036865 26.39111328 20.30639648 C22.5036153 20.34254273 18.61613222 20.36553898 14.72851562 20.38452148 C13.04457096 20.39459137 11.36064383 20.40824808 9.67675781 20.42553711 C7.25907062 20.44974246 4.84161419 20.46113117 2.42382812 20.4699707 C1.66856842 20.48029327 0.91330872 20.49061584 0.13516235 20.50125122 C-1.72067417 20.50165139 -3.57592718 20.39688536 -5.42773438 20.2746582 C-7.98722437 17.71516821 -7.68842168 16.00258625 -7.70117188 12.5090332 C-7.6934375 11.77168945 -7.68570312 11.0343457 -7.67773438 10.2746582 C-7.68546875 9.53731445 -7.69320313 8.7999707 -7.70117188 8.0402832 C-7.67694565 1.40229686 -6.53497801 0.03004535 0 0 Z " fill="#FCFCFC" transform="translate(336.427734375,654.725341796875)"/>
<path d="M0 0 C0.68126953 -0.01224609 1.36253906 -0.02449219 2.06445312 -0.03710938 C5.79079809 -0.04805848 7.38241571 0.06744381 10.5625 2.1875 C10.94281673 4.01818752 10.94281673 4.01818752 10.95018005 6.28013611 C10.96008469 7.13679367 10.96998932 7.99345123 10.98019409 8.87606812 C10.97344162 10.28887558 10.97344162 10.28887558 10.96655273 11.73022461 C10.97341599 12.72056198 10.98027924 13.71089935 10.98735046 14.73124695 C11.00570992 18.01759014 11.00176784 21.30346009 10.99609375 24.58984375 C11.00065125 26.86666521 11.00595552 29.14348529 11.01197815 31.42030334 C11.02092732 36.19782084 11.01846568 40.97517134 11.00854492 45.75268555 C10.99705482 51.8844357 11.01725868 58.01561004 11.04646206 64.14728451 C11.06478153 68.85095399 11.06454005 73.55448443 11.05882454 78.25818062 C11.05867079 80.5192807 11.06475878 82.7803899 11.07711601 85.04145622 C11.09194321 88.19980168 11.08140935 91.35706982 11.06420898 94.51538086 C11.07387695 95.45522827 11.08354492 96.39507568 11.09350586 97.36340332 C11.02137864 103.66713038 11.02137864 103.66713038 8.72669983 106.26930237 C5.73202463 107.53984293 3.24361016 107.54797148 0 107.5 C-1.70349609 107.49419922 -1.70349609 107.49419922 -3.44140625 107.48828125 C-6.4375 107.1875 -6.4375 107.1875 -9.4375 105.1875 C-9.80664349 103.3171978 -9.80664349 103.3171978 -9.79826355 100.99874878 C-9.80238754 100.12092743 -9.80651154 99.24310608 -9.8107605 98.33868408 C-9.79997467 97.37339783 -9.78918884 96.40811157 -9.77807617 95.41357422 C-9.77851425 94.39891083 -9.77895233 93.38424744 -9.77940369 92.33883667 C-9.77730772 88.9730936 -9.75393831 85.60784393 -9.73046875 82.2421875 C-9.72487568 79.91334302 -9.72060422 77.58449502 -9.71760559 75.25564575 C-9.70613413 69.11690579 -9.67664705 62.97837773 -9.64349365 56.83972168 C-9.61284237 50.57937487 -9.59911083 44.31899392 -9.58398438 38.05859375 C-9.55177964 25.76813591 -9.50055547 13.47783555 -9.4375 1.1875 C-6.41888236 -0.32180882 -3.30758697 0.00311156 0 0 Z " fill="#FAFAFA" transform="translate(431.4375,606.8125)"/>
<path d="M0 0 C0.73734375 0.00773438 1.4746875 0.01546875 2.234375 0.0234375 C3.34039062 0.01183594 3.34039062 0.01183594 4.46875 0 C9.9810554 0.0201179 9.9810554 0.0201179 12.234375 2.2734375 C12.49164391 4.10412502 12.49164391 4.10412502 12.50180054 6.36607361 C12.51033051 7.22273117 12.51886047 8.07938873 12.52764893 8.96200562 C12.52674255 9.90387726 12.52583618 10.8457489 12.52490234 11.81616211 C12.53497818 13.30166817 12.53497818 13.30166817 12.54525757 14.81718445 C12.56431529 18.10343388 12.5681656 21.38947995 12.5703125 24.67578125 C12.57673472 26.95260199 12.58346264 29.22942188 12.59048462 31.50624084 C12.60247665 36.28372105 12.60616343 41.06112884 12.60498047 45.83862305 C12.6047771 51.9703468 12.63208908 58.10160798 12.66652489 64.23322201 C12.6887255 68.93687588 12.69282012 73.6404172 12.69176102 78.34411812 C12.69412693 80.60522622 12.70300567 82.86633697 12.71842575 85.12739372 C12.73794851 88.2857014 12.73230163 91.44299553 12.72021484 94.60131836 C12.73145386 95.54116577 12.74269287 96.48101318 12.75427246 97.44934082 C12.69274166 103.75336749 12.69274166 103.75336749 10.39956665 106.35523987 C7.40438495 107.62541322 4.91584749 107.63391434 1.671875 107.5859375 C-0.03162109 107.58013672 -0.03162109 107.58013672 -1.76953125 107.57421875 C-4.765625 107.2734375 -4.765625 107.2734375 -7.765625 105.2734375 C-8.14035511 103.42433929 -8.14035511 103.42433929 -8.1398468 101.1361084 C-8.14686111 100.26959152 -8.15387543 99.40307465 -8.16110229 98.51029968 C-8.15345856 97.55750626 -8.14581482 96.60471283 -8.13793945 95.62304688 C-8.14159012 94.62134964 -8.14524078 93.6196524 -8.14900208 92.58760071 C-8.15713311 89.26395919 -8.14347608 85.94080132 -8.12890625 82.6171875 C-8.12838795 80.31555176 -8.12890448 78.01391557 -8.13041687 75.71228027 C-8.13032703 70.88347789 -8.11987389 66.05484206 -8.10180664 61.22607422 C-8.07911918 55.02486933 -8.07857416 48.823908 -8.08532429 42.62267303 C-8.08865986 37.86844707 -8.08204195 33.11427702 -8.07219505 28.36006165 C-8.06833565 26.07302645 -8.06719788 23.78598505 -8.0687809 21.49894714 C-8.06915022 18.30711946 -8.05656853 15.11560842 -8.0402832 11.92382812 C-8.04276062 10.9710347 -8.04523804 10.01824127 -8.04779053 9.03657532 C-8.04070572 8.17005844 -8.03362091 7.30354156 -8.02632141 6.4107666 C-8.02426854 5.65565041 -8.02221567 4.90053421 -8.02010059 4.12253571 C-7.38094345 -0.52177734 -3.86741657 0.01411466 0 0 Z " fill="#FCFCFC" transform="translate(236.765625,606.7265625)"/>
<path d="M0 0 C1.40668945 0.01450195 1.40668945 0.01450195 2.84179688 0.02929688 C3.81826172 0.05443359 4.79472656 0.07957031 5.80078125 0.10546875 C6.78884766 0.11900391 7.77691406 0.13253906 8.79492188 0.14648438 C11.23492356 0.18184672 13.67382844 0.23119842 16.11328125 0.29296875 C17.5334715 6.17290279 15.70402384 9.12875434 12.90625 14.359375 C6.36112549 25.06828242 -5.97841342 32.27043521 -17.8203125 35.8828125 C-20.24988197 36.36505219 -22.53529495 36.46198798 -25.01171875 36.48046875 C-25.88054688 36.49464844 -26.749375 36.50882813 -27.64453125 36.5234375 C-29.88671875 36.29296875 -29.88671875 36.29296875 -31.88671875 34.29296875 C-32.22265625 31.17578125 -32.22265625 31.17578125 -32.26171875 27.41796875 C-32.29007813 26.18304687 -32.3184375 24.948125 -32.34765625 23.67578125 C-31.88671875 20.29296875 -31.88671875 20.29296875 -30.16796875 17.96875 C-27.80282107 16.23133843 -25.78395205 15.29250088 -23.01171875 14.35546875 C-18.40104643 12.64856794 -15.5150957 10.55850801 -11.88671875 7.29296875 C-11.22671875 7.29296875 -10.56671875 7.29296875 -9.88671875 7.29296875 C-9.61859375 6.69484375 -9.35046875 6.09671875 -9.07421875 5.48046875 C-6.7186535 1.1412696 -4.97835878 -0.09051561 0 0 Z " fill="#FBFBFB" transform="translate(566.88671875,676.70703125)"/>
<path d="M0 0 C13.68377399 0.41914263 24.98684895 7.94343768 34.109375 17.57421875 C39.38249839 23.61418524 42.21513675 28.19389733 42.5 36.3125 C39.70012631 39.11237369 32.45378761 38.10465994 28.72021484 38.19628906 C24.04844651 38.08685025 20.53030855 37.91596009 16.90625 34.77734375 C14.97621488 32.72864058 13.48301836 30.6491653 11.8515625 28.328125 C8.33161724 23.81417527 3.91489955 21.73364659 -1.375 19.625 C-4.5 18.3125 -4.5 18.3125 -5.5 17.3125 C-5.62653198 14.82011431 -5.68519825 12.36779559 -5.6875 9.875 C-5.69974609 9.18083984 -5.71199219 8.48667969 -5.72460938 7.77148438 C-5.72989842 5.95029099 -5.62169207 4.1296308 -5.5 2.3125 C-3.5 0.3125 -3.5 0.3125 0 0 Z " fill="#FCFCFC" transform="translate(541.5,606.6875)"/>
</g>
</svg>
